# xmcd
#
# Track frame offsets: 
#        150
#        22259
#        37462
#        51213
#        74605
#        88750
#        103633
#        121901
#        141864
#
# Disc length: 2115 seconds
#
# Revision: 2
# Processed by: cddbd v1.5.2PL0 Copyright (c) Steve Scherf et al.
# Submitted via: ExactAudioCopyFreeDBPlugin 1.0
#
DISCID=8a084109
DTITLE=A Taste Of Honey - Twice As Sweet
DYEAR=1980
DGENRE=Funk
TTITLE0=Ain't Nothin' But A Party
TTITLE1=Rescue Me
TTITLE2=Superstar Superman
TTITLE3=I'm Talkin' 'Bout You
TTITLE4=She's A Dancer
TTITLE5=Don't You Lead Me On
TTITLE6=Good-Bye Baby
TTITLE7=Say That You'll Stay
TTITLE8=Sukiyaki
EXTD=YEAR: 1980
EXTT0=
EXTT1=
EXTT2=
EXTT3=
EXTT4=
EXTT5=
EXTT6=
EXTT7=
EXTT8=
PLAYORDER=
